A man, Jerzy, enters a train set for the Baltic coast. He seems to be on the run from something. He has to share sleeping-compartment with a woman who also seems to be on the run. Eventually we get to know that the police are looking for an escaped murderer. Is it really Jerzy they are looking for? From IMDb
 
http://www.imdb.com/title/tt0053176/

General
Unique ID                                : 249529106863726872406672177802886851947 (0xBBB98ED1E9837F27B78C898176912D6B)
Complete name                            : pociag sd hdPociag.1959.720p.BluRay.x264-iNFLiKTED.mkv
Format                                   : Matroska
Format version                           : Version 1
File size                                : 4.36 GiB
Duration                                 : 1h 37mn
Overall bit rate                         : 6 430 Kbps
Encoded date                             : UTC 2010-05-03 21:00:27
Writing application                      : mkvmerge v2.4.1 ('Use Me') built on Dec  5 2008 15:43:32
Writing library                          : libebml v0.7.7 + libmatroska v0.8.1

Video
ID                                       : 1
Format                                   : AVC
Format/Info                              : Advanced Video Codec
Format profile                           : High@L4.1
Format settings, CABAC                   : Yes
Format settings, ReFrames                : 9 frames
Codec ID                                 : V_MPEG4/ISO/AVC
Duration                                 : 1h 37mn
Bit rate                                 : 6 234 Kbps
Width                                    : 944 pixels
Height                                   : 720 pixels
Display aspect ratio                     : 4:3
Frame rate                               : 23.976 fps
Color space                              : YUV
Chroma subsampling                       : 4:2:0
Bit depth                                : 8 bits
Scan type                                : Progressive
Bits/(Pixel*Frame)                       : 0.383
Stream size                              : 4.15 GiB (95%)
Title                                    : Polish
Writing library                          : x264 core 88 r1471 1144615
Encoding settings                        : cabac=1 / ref=9 / deblock=1:-2:-1 / analyse=0x3:0x133 / me=esa / subme=9 / psy=1 / psy_rd=1.05:0.15 / mixed_ref=1 / me_range=32 / chroma_me=0 / trellis=2 / 8x8dct=1 / cqm=0 / deadzone=6,6 / fast_pskip=1 / chroma_qp_offset=-3 / threads=3 / sliced_threads=0 / nr=0 / decimate=0 / mbaff=0 / constrained_intra=0 / bframes=6 / b_pyramid=2 / b_adapt=2 / b_bias=0 / direct=3 / wpredb=1 / wpredp=2 / keyint=250 / keyint_min=25 / scenecut=40 / intra_refresh=0 / rc=2pass / mbtree=0 / bitrate=6234 / ratetol=1.0 / qcomp=0.80 / qpmin=10 / qpmax=51 / qpstep=4 / cplxblur=20.0 / qblur=0.5 / ip_ratio=1.10 / pb_ratio=1.10 / aq=1:0.70
Language                                 : Polish
Default                                  : Yes
Forced                                   : No

Audio
ID                                       : 2
Format                                   : AC-3
Format/Info                              : Audio Coding 3
Mode extension                           : CM (complete main)
Format settings, Endianness              : Big
Codec ID                                 : A_AC3
Duration                                 : 1h 37mn
Bit rate mode                            : Constant
Bit rate                                 : 192 Kbps
Channel(s)                               : 1 channel
Channel positions                        : Front: C
Sampling rate                            : 48.0 KHz
Bit depth                                : 16 bits
Compression mode                         : Lossy
Stream size                              : 133 MiB (3%)
Title                                    : Polish
Language                                 : Polish
Default                                  : Yes
Forced                                   : No

Text #1
ID                                       : 3
Format                                   : UTF-8
Codec ID                                 : S_TEXT/UTF8
Codec ID/Info                            : UTF-8 Plain Text
Title                                    : Polish SDH
Language                                 : Polish
Default                                  : No
Forced                                   : No

Text #2
ID                                       : 4
Format                                   : UTF-8
Codec ID                                 : S_TEXT/UTF8
Codec ID/Info                            : UTF-8 Plain Text
Title                                    : English
Language                                 : English
Default                                  : No
Forced                                   : No

